<svg xmlns="http://www.w3.org/2000/svg" width="520" height="130" viewBox="0 0 520 130">
  <g stroke="#1e1a16" fill="none" stroke-width="3" stroke-linecap="round" stroke-linejoin="round">
    <rect x="10" y="20" width="100" height="70" rx="8"/><path d="M35 70 L60 40 L85 70"/><circle cx="60" cy="35" r="5"/>
    <path d="M118 55 L138 55 M130 47 L138 55 L130 63"/>
    <rect x="146" y="20" width="100" height="70" rx="8"/><path d="M170 75 Q196 30 222 75"/>
    <path d="M254 55 L274 55 M266 47 L274 55 L266 63"/>
    <rect x="282" y="20" width="100" height="70" rx="8"/><path d="M305 55 Q332 35 358 55 Q332 75 305 55"/><circle cx="332" cy="55" r="6"/>
    <path d="M390 55 L410 55 M402 47 L410 55 L402 63"/>
    <rect x="418" y="20" width="100" height="70" rx="8"/><path d="M438 70 L498 40" stroke-dasharray="6 6"/>
  </g>
  <g font-family="sans-serif" font-size="18" fill="#1e1a16" text-anchor="middle">
    <text x="60" y="118">1. IV access</text><text x="196" y="118">2. Skin preparation</text><text x="332" y="118">3. Anesthesia</text><text x="468" y="118">4. Marking</text>
  </g>
</svg>
